<svg width="9" height="16" viewBox="0 0 9 16" fill="none" xmlns="http://www.w3.org/2000/svg">
<path d="M1.77539 0.298828L8.61328 6.9873C8.85938 7.22461 8.97363 7.48828 8.97363 7.7959C8.97363 8.10352 8.85059 8.38477 8.61328 8.61328L1.77539 15.293C1.57324 15.4863 1.33594 15.5918 1.0459 15.5918C0.457031 15.5918 1.8048e-07 15.1348 1.73563e-07 14.5547C1.70209e-07 14.2734 0.114258 14.001 0.316406 13.7988L6.47754 7.80469L0.316406 1.79297C0.114258 1.59082 1.58261e-08 1.32715 1.23674e-08 1.03711C5.45004e-09 0.457031 0.457031 1.01559e-07 1.0459 9.45373e-08C1.32715 9.11834e-08 1.57324 0.105469 1.77539 0.298828Z" fill="#657480"/>
</svg>
