<svg width="19" height="19" viewBox="0 0 19 19" fill="none" xmlns="http://www.w3.org/2000/svg">
<path d="M9.08789 18.1758C14.0713 18.1758 18.1846 14.0625 18.1846 9.08789C18.1846 4.11328 14.0625 0 9.0791 0C4.10449 0 0 4.11328 0 9.08789C0 14.0625 4.11328 18.1758 9.08789 18.1758ZM9.08789 16.3652C5.05371 16.3652 1.82812 13.1221 1.82812 9.08789C1.82812 5.05371 5.05371 1.81934 9.0791 1.81934C13.1133 1.81934 16.3564 5.05371 16.3652 9.08789C16.374 13.1221 13.1221 16.3652 9.08789 16.3652ZM9.08789 8.78906C10.3184 8.79785 11.3115 7.74316 11.3115 6.35449C11.3115 5.05371 10.3184 3.97266 9.08789 3.97266C7.84863 3.97266 6.85547 5.05371 6.85547 6.35449C6.85547 7.74316 7.84863 8.78027 9.08789 8.78906ZM5.20312 13.4824H12.9639C13.3418 13.4824 13.5352 13.2188 13.5352 12.8672C13.5352 11.918 12.1289 9.47461 9.08789 9.47461C6.03809 9.47461 4.63184 11.918 4.63184 12.8672C4.63184 13.2188 4.8252 13.4824 5.20312 13.4824Z" fill="#657480"/>
</svg>
