<svg width="19" height="19" viewBox="0 0 19 19" fill="none" xmlns="http://www.w3.org/2000/svg">
<path d="M9.0791 18.1582C14.0449 18.1582 18.1582 14.0537 18.1582 9.0791C18.1582 4.11328 14.0449 0 9.07031 0C4.10449 0 0 4.11328 0 9.0791C0 14.0537 4.11328 18.1582 9.0791 18.1582ZM9.0791 16.374C5.03613 16.374 1.79297 13.1221 1.79297 9.0791C1.79297 5.03613 5.02734 1.79297 9.07031 1.79297C13.1133 1.79297 16.3652 5.03613 16.374 9.0791C16.374 13.1221 13.1221 16.374 9.0791 16.374ZM5.625 10.626C5.625 12.8057 7.06641 14.1416 9.08789 14.1416C10.5469 14.1416 11.5576 13.5703 12.252 12.252C12.6914 11.4961 13.0166 10.5029 13.2979 9.57129C13.4385 9.11426 13.6318 8.56055 13.6494 8.31445C13.6582 8.01562 13.4561 7.80469 13.1572 7.7959C12.832 7.77832 12.6123 7.97168 12.4014 8.41992L11.7158 9.8877C11.6543 10.0371 11.584 10.0898 11.5137 10.0898C11.4258 10.0898 11.373 10.0195 11.373 9.87891V4.70215C11.373 4.39453 11.1094 4.13965 10.8018 4.13965C10.4854 4.13965 10.2393 4.39453 10.2393 4.70215V8.42871C10.1074 8.39355 9.98438 8.34961 9.83496 8.32324V3.99902C9.83496 3.69141 9.58887 3.43652 9.27246 3.43652C8.95605 3.43652 8.70996 3.69141 8.70996 3.99902V8.26172C8.56934 8.28809 8.42871 8.29688 8.29688 8.32324V4.4209C8.29688 4.10449 8.04199 3.84961 7.72559 3.84961C7.41797 3.84961 7.1543 4.10449 7.1543 4.4209V8.66602C7.00488 8.72754 6.89062 8.80664 6.76758 8.87695V5.95898C6.76758 5.63379 6.5127 5.37891 6.19629 5.37891C5.87988 5.37891 5.625 5.63379 5.625 5.95898V10.626Z" fill="#000000"/>
</svg>
