<svg width="19" height="19" viewBox="0 0 19 19" fill="none" xmlns="http://www.w3.org/2000/svg">
<path d="M9.09262 18.1758C14.0786 18.1758 18.194 14.0625 18.194 9.08789C18.194 4.11328 14.0698 0 9.08383 0C4.10663 0 0 4.11328 0 9.08789C0 14.0625 4.11542 18.1758 9.09262 18.1758ZM9.09262 16.3652C5.05634 16.3652 1.82908 13.1221 1.82908 9.08789C1.82908 5.05371 5.05634 1.81934 9.08383 1.81934C13.1201 1.81934 16.365 5.05371 16.3738 9.08789C16.3826 13.1221 13.1289 16.3652 9.09262 16.3652ZM6.20831 12.7793C6.43694 12.7793 6.6392 12.7002 6.78869 12.542L9.09262 10.2393L11.3966 12.542C11.546 12.6914 11.7395 12.7793 11.9769 12.7793C12.4254 12.7793 12.7772 12.4277 12.7772 11.9795C12.7772 11.7598 12.6892 11.5664 12.5397 11.417L10.227 9.10547L12.5397 6.78516C12.7068 6.61816 12.786 6.44238 12.786 6.23145C12.786 5.7832 12.4342 5.43164 11.9857 5.43164C11.7659 5.43164 11.5812 5.50195 11.4141 5.66895L9.09262 7.98047L6.7711 5.67773C6.62161 5.51953 6.43694 5.44043 6.20831 5.44043C5.75983 5.44043 5.40809 5.7832 5.40809 6.23145C5.40809 6.45117 5.49603 6.64453 5.65431 6.79395L7.95824 9.10547L5.65431 11.4258C5.49603 11.5664 5.40809 11.7686 5.40809 11.9795C5.40809 12.4277 5.75983 12.7793 6.20831 12.7793Z" fill="#1C1C1E"/>
</svg>
