<svg width="23" height="17" viewBox="0 0 23 17" fill="none" xmlns="http://www.w3.org/2000/svg">
<path d="M0.926514 15.8994C0.926514 16.3564 1.2561 16.6553 1.76018 16.6553H21.1769C21.7004 16.6553 22.1366 16.2861 22.1366 15.7939C22.1366 15.3018 21.7004 14.9326 21.1769 14.9326H3.09793C2.89436 14.9326 2.8265 14.8711 2.8265 14.6865V9.90527L6.93668 7.74316C7.26627 8.02441 7.70249 8.2002 8.19688 8.2002C8.61371 8.2002 9.01116 8.06836 9.32136 7.84863L11.1438 9.25488C11.0759 9.43066 11.0372 9.62402 11.0372 9.81738C11.0372 10.749 11.8611 11.4961 12.879 11.4961C13.8968 11.4961 14.7305 10.749 14.7305 9.81738C14.7305 9.74707 14.7208 9.66797 14.7111 9.59766L19.1509 7.18945C19.4417 7.37402 19.8004 7.47949 20.1784 7.47949C21.1963 7.47949 22.03 6.72363 22.03 5.80078C22.03 4.87793 21.1963 4.12207 20.1784 4.12207C19.1606 4.12207 18.3269 4.87793 18.3269 5.80078C18.3269 5.91504 18.3463 6.0293 18.3657 6.13477L14.0132 8.49902C13.703 8.2793 13.3055 8.14746 12.879 8.14746C12.5785 8.14746 12.2877 8.20898 12.0259 8.33203L10.0193 6.78516C10.029 6.69727 10.0387 6.60938 10.0387 6.52148C10.0387 5.59863 9.21473 4.84277 8.19688 4.84277C7.16933 4.84277 6.34536 5.59863 6.34536 6.52148C6.34536 6.54785 6.34536 6.57422 6.34536 6.60059L2.8265 8.44629V0.870117C2.8265 0.386719 2.41936 0 1.87651 0C1.33365 0 0.926514 0.386719 0.926514 0.870117V15.8994Z" fill="#1C1C1E"/>
</svg>
