<svg width="21" height="16" viewBox="0 0 21 16" fill="none" xmlns="http://www.w3.org/2000/svg">
<path d="M13.703 4.55273C14.7499 4.55273 15.6515 3.95508 16.0295 3.12891H19.2188C19.7035 3.12891 20.1106 2.74219 20.1106 2.27637C20.1106 1.81055 19.7035 1.43262 19.2188 1.43262H16.0295C15.6611 0.597656 14.7596 0 13.703 0C12.6464 0 11.7448 0.597656 11.3765 1.43262H0.994399C0.480627 1.43262 0.0734863 1.81055 0.0734863 2.27637C0.0734863 2.74219 0.480627 3.12891 0.994399 3.12891H11.3765C11.7545 3.95508 12.6561 4.55273 13.703 4.55273ZM13.703 3.35742C13.0341 3.35742 12.5107 2.87402 12.5107 2.27637C12.5107 1.66113 13.0341 1.18652 13.703 1.18652C14.3816 1.18652 14.8953 1.66113 14.8953 2.27637C14.8953 2.87402 14.3816 3.35742 13.703 3.35742ZM0.965318 6.91699C0.480627 6.91699 0.0734863 7.29492 0.0734863 7.76074C0.0734863 8.21777 0.480627 8.60449 0.965318 8.60449H4.26122C4.63928 9.44824 5.5408 10.0371 6.59743 10.0371C7.64436 10.0371 8.54589 9.44824 8.92394 8.60449H19.1897C19.7035 8.60449 20.1106 8.22656 20.1106 7.76074C20.1106 7.29492 19.7035 6.91699 19.1897 6.91699H8.92394C8.54589 6.08203 7.64436 5.49316 6.59743 5.49316C5.5408 5.49316 4.63928 6.08203 4.26122 6.91699H0.965318ZM6.59743 8.85059C5.92855 8.85059 5.39539 8.36719 5.39539 7.76074C5.39539 7.14551 5.92855 6.67969 6.59743 6.67969C7.2663 6.67969 7.78977 7.14551 7.78977 7.76074C7.78977 8.36719 7.2663 8.85059 6.59743 8.85059ZM13.703 15.5215C14.7596 15.5215 15.6611 14.9238 16.0295 14.0889H19.2188C19.7035 14.0889 20.1106 13.7109 20.1106 13.2451C20.1106 12.7705 19.7035 12.4014 19.2188 12.4014H16.0295C15.6611 11.5664 14.7596 10.9688 13.703 10.9688C12.6561 10.9688 11.7448 11.5664 11.3765 12.4014H0.994399C0.480627 12.4014 0.0734863 12.7793 0.0734863 13.2451C0.0734863 13.7021 0.480627 14.0889 0.994399 14.0889H11.3765C11.7448 14.9238 12.6464 15.5215 13.703 15.5215ZM13.703 14.3262C13.0341 14.3262 12.5107 13.8428 12.5107 13.2451C12.5107 12.6299 13.0341 12.1641 13.703 12.1641C14.3816 12.1641 14.8953 12.6299 14.8953 13.2451C14.8953 13.8428 14.3816 14.3262 13.703 14.3262Z" fill="#1C1C1E"/>
</svg>
