<svg width="12" height="13" viewBox="0 0 12 13" fill="none" xmlns="http://www.w3.org/2000/svg">
<path d="M4.84581 13C7.50661 13 9.6652 11.594 9.6652 9.84796C9.6652 8.95479 9.11013 8.1711 8.06167 7.53723C7.87665 7.42775 7.8326 7.3586 7.8326 7.19725L7.84141 2.14938C7.84141 0.858599 6.63436 0 4.84581 0C3.03965 0 1.81498 0.858599 1.81498 2.14938L1.8326 7.19725C1.8326 7.3586 1.78855 7.42775 1.60352 7.53723C0.546255 8.16534 0 8.95479 0 9.84796C0 11.594 2.15859 13 4.84581 13ZM4.84581 11.9973C3.01322 11.9973 1.54185 11.0293 1.54185 9.83644C1.54185 9.10461 2.07048 8.47074 2.99559 8.06161C3.26872 7.94636 3.37445 7.83688 3.37445 7.60638V2.18972C3.37445 1.46941 3.96476 1.00842 4.84581 1.00842C5.70044 1.00842 6.29075 1.46941 6.29075 2.18972V7.60638C6.29075 7.83688 6.39648 7.94636 6.6696 8.06161C7.59471 8.47074 8.12335 9.10461 8.12335 9.83644C8.12335 11.0293 6.65198 11.9973 4.84581 11.9973ZM9.52423 2.2531H11.4537C11.7885 2.2531 12 2.09176 12 1.9016C12 1.71144 11.7885 1.55009 11.4537 1.55009H9.52423C9.18943 1.55009 8.96916 1.71144 8.96916 1.9016C8.96916 2.09176 9.18943 2.2531 9.52423 2.2531ZM9.52423 3.84929H11.4537C11.7885 3.84929 12 3.68794 12 3.49778C12 3.30762 11.7885 3.14628 11.4537 3.14628H9.52423C9.18943 3.14628 8.96916 3.30762 8.96916 3.49778C8.96916 3.68794 9.18943 3.84929 9.52423 3.84929ZM9.52423 5.457H11.4537C11.7885 5.457 12 5.29566 12 5.1055C12 4.91534 11.7885 4.75399 11.4537 4.75399H9.52423C9.18943 4.75399 8.96916 4.91534 8.96916 5.1055C8.96916 5.29566 9.18943 5.457 9.52423 5.457ZM4.82819 11.2194C6 11.2194 6.94273 10.6028 6.94273 9.83067C6.94273 9.30053 6.48458 8.85683 5.80617 8.62057C5.52423 8.52261 5.43612 8.45346 5.43612 8.17686V5.23227C5.43612 4.93839 5.17181 4.75399 4.82819 4.75399C4.49339 4.75399 4.22907 4.93839 4.22907 5.23227V8.17686C4.22907 8.45346 4.14097 8.52261 3.85903 8.62057C3.18062 8.85683 2.72247 9.30053 2.72247 9.83067C2.72247 10.6028 3.6652 11.2194 4.82819 11.2194ZM9.52423 7.05895H11.4537C11.7885 7.05895 12 6.89761 12 6.70745C12 6.51729 11.7885 6.35594 11.4537 6.35594H9.52423C9.18943 6.35594 8.96916 6.51729 8.96916 6.70745C8.96916 6.89761 9.18943 7.05895 9.52423 7.05895Z" fill="#657480"/>
</svg>
